<svg width="96" height="96" viewBox="0 0 96 96" fill="none" xmlns="http://www.w3.org/2000/svg">
<rect width="96" height="96" rx="12" fill="white"/>
<path d="M27.9658 28.6153C27.8102 23.7408 26.8553 19.1447 26.0843 16.5747C25.8377 15.7526 26.1431 14.8648 26.8433 14.3684C27.5434 13.8721 28.4822 13.8777 29.1763 14.3825C29.3107 14.4803 29.625 14.6572 30.2815 15.0167L30.3657 15.0628C32.7124 16.3471 37.5292 18.9832 40.4895 23.8562C43.4327 23.2941 46.6044 23 50 23C61.6784 23 70.7124 26.4847 76.8401 32.3409C82.9684 38.1977 86 46.2473 86 55C86 63.3145 82.4387 70.8462 76.672 76.4973L79.5172 79.2073C81.5168 81.1118 81.5938 84.2767 79.6893 86.2763C79.3866 86.5941 79.0521 86.8633 78.6954 87.0837C78.2493 88.4314 77.3261 89.6267 76 90.3924C73.1302 92.0492 69.4607 91.066 67.8038 88.1962L65.3543 83.9535C60.6904 85.9099 55.4837 87 50 87C46.4154 87 43.08 86.6723 39.9998 86.0474C39.9743 88.787 37.7456 91 35 91C34.4198 91 33.8627 90.9012 33.3446 90.7195C31.6707 91.4286 29.6957 91.3714 28 90.3923C25.1302 88.7355 24.147 85.0659 25.8038 82.1962L26.739 80.5765C21.116 76.6764 17.337 71.2511 15.4376 65H14C10.6863 65 8 62.3137 8 59V51C8 47.6863 10.6863 45 14 45H15.4376C17.4727 38.3024 21.6648 32.5552 27.9658 28.6153Z" fill="#021024" fill-opacity="0.1"/>
<path d="M71.31 83.7242C72.9096 85.2478 75.4415 85.1862 76.9651 83.5866C78.4888 81.9869 78.4271 79.455 76.8275 77.9314L66.69 68.2757C65.0904 66.7521 62.5585 66.8137 61.0348 68.4134C59.5112 70.013 59.5729 72.5449 61.1725 74.0686L71.31 83.7242Z" fill="#1BB093" stroke="#2B6F95" stroke-width="2" stroke-linecap="round" stroke-linejoin="round"/>
<path d="M29 84C29 86.2091 30.7909 88 33 88C35.2091 88 37 86.2091 37 84V70C37 67.7909 35.2091 66 33 66C30.7909 66 29 67.7909 29 70V84Z" fill="#1BB093" stroke="#2B6F95" stroke-width="2" stroke-linecap="round" stroke-linejoin="round"/>
<mask id="path-5-outside-1_101_24" maskUnits="userSpaceOnUse" x="6" y="12" width="78" height="78" fill="black">
<rect fill="white" x="6" y="12" width="78" height="78"/>
<path fill-rule="evenodd" clip-rule="evenodd" d="M37.4494 24.1168C34.9068 18.9241 29.879 16.1714 27.3211 14.771C26.7265 14.4455 26.2654 14.193 26 14C26.8762 16.9207 27.9572 22.23 27.9871 27.7353C21.1192 31.6765 16.7645 37.7946 14.9584 45H12C9.79086 45 8 46.7909 8 49V57C8 59.2092 9.79086 61 12 61H14.9584C16.7143 68.0053 20.8793 73.983 27.4208 77.9314L25.5359 81.1962C24.4313 83.1094 25.0868 85.5557 27 86.6603C28.9132 87.7649 31.3595 87.1094 32.4641 85.1962L34.7851 81.1761C38.655 82.356 43.0611 83 48 83C53.8588 83 59.3715 81.6925 64.1837 79.3901L67.5359 85.1962C68.6405 87.1094 71.0868 87.7649 73 86.6603C74.9132 85.5557 75.5687 83.1094 74.4641 81.1962L70.9599 75.1268C77.7453 69.6422 82 61.7595 82 53C82 36.4315 70.5555 23 48 23C44.1606 23 40.6432 23.3892 37.4494 24.1168Z"/>
</mask>
<path fill-rule="evenodd" clip-rule="evenodd" d="M37.4494 24.1168C34.9068 18.9241 29.879 16.1714 27.3211 14.771C26.7265 14.4455 26.2654 14.193 26 14C26.8762 16.9207 27.9572 22.23 27.9871 27.7353C21.1192 31.6765 16.7645 37.7946 14.9584 45H12C9.79086 45 8 46.7909 8 49V57C8 59.2092 9.79086 61 12 61H14.9584C16.7143 68.0053 20.8793 73.983 27.4208 77.9314L25.5359 81.1962C24.4313 83.1094 25.0868 85.5557 27 86.6603C28.9132 87.7649 31.3595 87.1094 32.4641 85.1962L34.7851 81.1761C38.655 82.356 43.0611 83 48 83C53.8588 83 59.3715 81.6925 64.1837 79.3901L67.5359 85.1962C68.6405 87.1094 71.0868 87.7649 73 86.6603C74.9132 85.5557 75.5687 83.1094 74.4641 81.1962L70.9599 75.1268C77.7453 69.6422 82 61.7595 82 53C82 36.4315 70.5555 23 48 23C44.1606 23 40.6432 23.3892 37.4494 24.1168Z" fill="#78D3A9"/>
<path d="M37.4494 24.1168L35.6531 24.9963C36.0612 25.8296 36.9889 26.2729 37.8936 26.0668L37.4494 24.1168ZM27.3211 14.771L26.3606 16.5253L26.3606 16.5253L27.3211 14.771ZM26 14L27.1763 12.3825C26.4822 11.8777 25.5434 11.8721 24.8433 12.3684C24.1431 12.8648 23.8377 13.7526 24.0843 14.5747L26 14ZM27.9871 27.7353L28.9826 29.4699C29.6073 29.1114 29.991 28.4447 29.9871 27.7244L27.9871 27.7353ZM14.9584 45V47C15.8756 47 16.6753 46.376 16.8984 45.4863L14.9584 45ZM14.9584 61L16.8984 60.5137C16.6753 59.624 15.8756 59 14.9584 59V61ZM27.4208 77.9314L29.1528 78.9314C29.6975 77.988 29.387 76.7821 28.4543 76.2192L27.4208 77.9314ZM25.5359 81.1962L23.8038 80.1962L23.8038 80.1962L25.5359 81.1962ZM32.4641 85.1962L34.1962 86.1962L34.1962 86.1962L32.4641 85.1962ZM34.7851 81.1761L35.3683 79.2631C34.4781 78.9917 33.5184 79.3702 33.053 80.1761L34.7851 81.1761ZM64.1837 79.3901L65.9158 78.3901C65.3934 77.4854 64.2628 77.1351 63.3205 77.5859L64.1837 79.3901ZM67.5359 85.1962L65.8038 86.1962L65.8038 86.1962L67.5359 85.1962ZM73 86.6603L74 88.3924L74 88.3924L73 86.6603ZM74.4641 81.1962L72.732 82.1962L72.732 82.1962L74.4641 81.1962ZM70.9599 75.1268L69.7027 73.5714C68.937 74.1902 68.7356 75.2742 69.2279 76.1268L70.9599 75.1268ZM39.2456 23.2372C36.3915 17.4082 30.8027 14.397 28.2815 13.0167L26.3606 16.5253C28.9553 17.9458 33.4222 20.4399 35.6531 24.9963L39.2456 23.2372ZM28.2815 13.0167C27.625 12.6572 27.3107 12.4803 27.1763 12.3825L24.8237 15.6175C25.2202 15.9058 25.8281 16.2337 26.3606 16.5253L28.2815 13.0167ZM24.0843 14.5747C24.9147 17.3427 25.9584 22.4611 25.9871 27.7461L29.9871 27.7244C29.9559 21.9989 28.8377 16.4987 27.9157 13.4253L24.0843 14.5747ZM26.9917 26.0006C19.6313 30.2243 14.9506 36.8051 13.0184 44.5137L16.8984 45.4863C18.5783 38.7841 22.607 33.1286 28.9826 29.4699L26.9917 26.0006ZM14.9584 43H12V47H14.9584V43ZM12 43C8.68629 43 6 45.6863 6 49H10C10 47.8954 10.8954 47 12 47V43ZM6 49V57H10V49H6ZM6 57C6 60.3137 8.68629 63 12 63V59C10.8954 59 10 58.1046 10 57H6ZM12 63H14.9584V59H12V63ZM13.0184 61.4863C14.8965 68.9789 19.372 75.4093 26.3873 79.6437L28.4543 76.2192C22.3866 72.5567 18.5321 67.0317 16.8984 60.5137L13.0184 61.4863ZM25.6887 76.9314L23.8038 80.1962L27.2679 82.1962L29.1528 78.9314L25.6887 76.9314ZM23.8038 80.1962C22.147 83.0659 23.1302 86.7355 26 88.3923L28 84.9282C27.0434 84.376 26.7157 83.1528 27.2679 82.1962L23.8038 80.1962ZM26 88.3923C28.8698 90.0492 32.5393 89.0659 34.1962 86.1962L30.7321 84.1962C30.1798 85.1528 28.9566 85.4805 28 84.9282L26 88.3923ZM34.1962 86.1962L36.5171 82.1761L33.053 80.1761L30.7321 84.1962L34.1962 86.1962ZM34.2018 83.0892C38.2829 84.3335 42.888 85 48 85V81C43.2343 81 39.0271 80.3786 35.3683 79.2631L34.2018 83.0892ZM48 85C54.1569 85 59.9646 83.6258 65.0469 81.1942L63.3205 77.5859C58.7784 79.7591 53.5607 81 48 81V85ZM62.4517 80.3901L65.8038 86.1962L69.2679 84.1962L65.9158 78.3901L62.4517 80.3901ZM65.8038 86.1962C67.4607 89.066 71.1302 90.0492 74 88.3924L72 84.9283C71.0434 85.4805 69.8202 85.1528 69.2679 84.1962L65.8038 86.1962ZM74 88.3924C76.8697 86.7355 77.853 83.066 76.1961 80.1962L72.732 82.1962C73.2843 83.1528 72.9566 84.376 72 84.9283L74 88.3924ZM76.1961 80.1962L72.692 74.1268L69.2279 76.1268L72.732 82.1962L76.1961 80.1962ZM72.2172 76.6822C79.4113 70.8672 84 62.4378 84 53H80C80 61.0812 76.0793 68.4171 69.7027 73.5714L72.2172 76.6822ZM84 53C84 44.2473 80.9684 36.1977 74.8401 30.3409C68.7124 24.4847 59.6784 21 48 21V25C58.877 25 66.8431 28.2311 72.0765 33.2327C77.3094 38.2338 80 45.1842 80 53H84ZM48 21C44.0259 21 40.3584 21.4028 37.0051 22.1667L37.8936 26.0668C40.928 25.3755 44.2954 25 48 25V21Z" fill="#2B6F95" mask="url(#path-5-outside-1_101_24)"/>
<path fill-rule="evenodd" clip-rule="evenodd" d="M33.1379 18.6442C34.0131 19.6589 34.8098 20.8106 35.4494 22.1168C35.687 22.0626 35.9264 22.0104 36.1676 21.96C35.2618 20.6774 34.2135 19.5806 33.1379 18.6442ZM72.8644 31.2361C77.6109 36.5146 80 43.4299 80 51C80 59.7595 75.7453 67.6422 68.9599 73.1268L72.4641 79.1962C73.5687 81.1094 72.9132 83.5557 71 84.6603C69.831 85.3352 68.4629 85.353 67.3235 84.8283L67.5359 85.1962C68.6405 87.1094 71.0868 87.7649 73 86.6603C74.9132 85.5557 75.5687 83.1094 74.4641 81.1962L70.9599 75.1268C77.7453 69.6422 82 61.7595 82 53C82 44.4319 78.9394 36.7027 72.8644 31.2361ZM63.5176 79.7004L62.1837 77.3901C57.3715 79.6925 51.8588 81 46 81C41.0611 81 36.655 80.356 32.7851 79.1761L30.4641 83.1962C29.4266 84.9932 27.2053 85.6806 25.354 84.8422C25.6865 85.5802 26.2454 86.2246 27 86.6603C28.9132 87.7649 31.3595 87.1094 32.4641 85.1962L34.7851 81.1761C38.655 82.356 43.0611 83 48 83C53.5902 83 58.8654 81.8096 63.5176 79.7004ZM25.146 76.4074L25.4208 75.9314C23.8563 74.9871 22.4278 73.9267 21.1356 72.764C22.3246 74.0863 23.6616 75.3059 25.146 76.4074ZM13.5345 61C13.32 60.3435 13.128 59.6766 12.9584 59H10C9.41306 59 8.85565 58.8736 8.35351 58.6465C8.98114 60.0344 10.3778 61 12 61H13.5345Z" fill="#1BB093"/>
<path d="M40.007 27.4736C47.43 26.2605 51.5115 26.5862 58.648 28.9613" stroke="#1BB093" stroke-width="4" stroke-linecap="round" stroke-linejoin="round"/>
<path fill-rule="evenodd" clip-rule="evenodd" d="M42.951 65.9841C55.2126 65.5721 65 57.2303 65 47C65 36.5066 57.2581 28 42 28C26.7419 28 19 36.5066 19 47C19 53.5543 22.0204 59.3335 28.0063 62.7488C29.2309 60.4968 31.5692 59 35 59C39.8938 59 42.5646 62.0455 42.951 65.9841Z" fill="#92EAC1"/>
<path d="M62 48C62 54.6274 56.6274 60 50 60C42.0392 60 38 54.6274 38 48C38 41.3726 42.0392 36 50 36C57.9608 36 62 41.3726 62 48Z" fill="#C4FFE4"/>
<path d="M36 37.5C36 39.9853 33.5376 42 30.5 42C26.8513 42 25 39.9853 25 37.5C25 35.0147 26.8513 33 30.5 33C34.1487 33 36 35.0147 36 37.5Z" fill="#C3FFE3"/>
<path d="M29 31C26.619 31.7982 21.2857 35.5158 19 44" stroke="#9FFAD0" stroke-width="2" stroke-linecap="round" stroke-linejoin="round"/>
<path d="M83.3989 56.3995C85.8514 55.9142 89.5702 52.6299 87.7319 47.387C85.3922 40.7142 78.423 44.1321 79.5929 47.4684C81.2474 52.1868 90.866 50.3468 88.8256 40.0349C87.6314 34 83.3989 33.5 81.5 34" stroke="#2B6F95" stroke-width="2" stroke-linecap="round" stroke-linejoin="round"/>
<path d="M26 40C27.0909 41.5092 30.2182 43.6222 34 40" stroke="#2B6F95" stroke-width="2" stroke-linecap="round" stroke-linejoin="round"/>
<path d="M30 18C31.5 19.5 34 22 35 24" stroke="#9FFAD0" stroke-width="2" stroke-linecap="round" stroke-linejoin="round"/>
<path d="M26 67C28.7 67 31.85 67 35 63" stroke="#2B6F95" stroke-width="2" stroke-linecap="round" stroke-linejoin="round"/>
<circle cx="65.5" cy="65.5" r="1.5" fill="#1BB093"/>
<circle cx="70.5" cy="63.5" r="1.5" fill="#1BB093"/>
<circle cx="67" cy="61" r="1" fill="#1BB093"/>
<circle cx="74" cy="59" r="1" fill="#1BB093"/>
<circle cx="76" cy="54" r="1" fill="#1BB093"/>
<circle cx="75" cy="48" r="1" fill="#1BB093"/>
<circle cx="73" cy="56" r="1" fill="#1BB093"/>
<circle cx="68" cy="57" r="1" fill="#1BB093"/>
<circle cx="74" cy="63" r="1" fill="#1BB093"/>
<circle cx="73" cy="67" r="1" fill="#1BB093"/>
<circle cx="68" cy="70" r="1" fill="#1BB093"/>
<circle cx="67" cy="74" r="1" fill="#1BB093"/>
<circle cx="61" cy="74" r="1" fill="#1BB093"/>
<circle cx="57" cy="71" r="1" fill="#1BB093"/>
<circle cx="65" cy="71" r="1" fill="#1BB093"/>
<circle cx="60" cy="67" r="1" fill="#1BB093"/>
<circle cx="78.5" cy="56.5" r="1.5" fill="#1BB093"/>
<path d="M55 41.3333C53.8781 40.4909 52.5314 40 51.0832 40C47.1713 40 44 43.5817 44 48C44 52.4183 47.1713 56 51.0832 56C52.5314 56 53.8781 55.5091 55 54.6667" stroke="#2B6F95" stroke-width="3" stroke-linecap="round" stroke-linejoin="round"/>
<path d="M41 50H49" stroke="#2B6F95" stroke-width="2" stroke-linecap="round" stroke-linejoin="round"/>
<path d="M41 46H49" stroke="#2B6F95" stroke-width="2" stroke-linecap="round" stroke-linejoin="round"/>
</svg>
