<svg width="86" height="80" viewBox="0 0 86 80" fill="none" xmlns="http://www.w3.org/2000/svg">
<path d="M21.9658 16.6153C21.8102 11.7408 20.8553 7.14469 20.0843 4.5747C19.8377 3.75262 20.1431 2.86485 20.8433 2.36845C21.5434 1.87205 22.4822 1.87772 23.1763 2.38253C23.3107 2.48025 23.625 2.65724 24.2815 3.01669L24.3657 3.06277C26.7124 4.34705 31.5292 6.9832 34.4895 11.8562C37.4327 11.2941 40.6044 11 44 11C55.6784 11 64.7124 14.4847 70.8401 20.3409C76.9684 26.1977 80 34.2473 80 43C80 51.3145 76.4387 58.8462 70.672 64.4973L73.5172 67.2073C75.5168 69.1118 75.5938 72.2767 73.6893 74.2763C73.3866 74.5941 73.0521 74.8633 72.6954 75.0837C72.2493 76.4314 71.3261 77.6267 70 78.3924C67.1302 80.0492 63.4607 79.066 61.8038 76.1962L59.3543 71.9535C54.6904 73.9099 49.4837 75 44 75C40.4154 75 37.08 74.6723 33.9998 74.0474C33.9743 76.787 31.7456 79 29 79C28.4198 79 27.8627 78.9012 27.3446 78.7195C25.6707 79.4286 23.6957 79.3714 22 78.3923C19.1302 76.7355 18.147 73.0659 19.8038 70.1962L20.739 68.5765C15.116 64.6764 11.337 59.2511 9.43763 53H8C4.68629 53 2 50.3137 2 47V39C2 35.6863 4.68629 33 8 33H9.43763C11.4727 26.3024 15.6648 20.5552 21.9658 16.6153Z" fill="#021024" fill-opacity="0.1"/>
<path d="M65.31 71.7242C66.9096 73.2478 69.4415 73.1862 70.9651 71.5866C72.4888 69.9869 72.4271 67.455 70.8275 65.9314L60.69 56.2757C59.0904 54.7521 56.5585 54.8137 55.0348 56.4134C53.5112 58.013 53.5729 60.5449 55.1725 62.0686L65.31 71.7242Z" fill="#1BB093" stroke="#2B6F95" stroke-width="2" stroke-linecap="round" stroke-linejoin="round"/>
<path d="M23 72C23 74.2091 24.7909 76 27 76C29.2091 76 31 74.2091 31 72V58C31 55.7909 29.2091 54 27 54C24.7909 54 23 55.7909 23 58V72Z" fill="#1BB093" stroke="#2B6F95" stroke-width="2" stroke-linecap="round" stroke-linejoin="round"/>
<mask id="path-4-outside-1_101_25" maskUnits="userSpaceOnUse" x="0" y="0" width="78" height="78" fill="black">
<rect fill="white" width="78" height="78"/>
<path fill-rule="evenodd" clip-rule="evenodd" d="M31.4494 12.1168C28.9068 6.92408 23.879 4.1714 21.3211 2.77099C20.7265 2.44549 20.2654 2.19305 20 2C20.8762 4.92071 21.9572 10.23 21.9871 15.7353C15.1192 19.6765 10.7645 25.7946 8.95838 33H6C3.79086 33 2 34.7909 2 37V45C2 47.2092 3.79086 49 6 49H8.95837C10.7143 56.0053 14.8793 61.983 21.4208 65.9314L19.5359 69.1962C18.4313 71.1094 19.0868 73.5557 21 74.6603C22.9132 75.7649 25.3595 75.1094 26.4641 73.1962L28.7851 69.1761C32.655 70.356 37.0611 71 42 71C47.8588 71 53.3715 69.6925 58.1837 67.3901L61.5359 73.1962C62.6405 75.1094 65.0868 75.7649 67 74.6603C68.9132 73.5557 69.5687 71.1094 68.4641 69.1962L64.9599 63.1268C71.7453 57.6422 76 49.7595 76 41C76 24.4315 64.5555 11 42 11C38.1606 11 34.6432 11.3892 31.4494 12.1168Z"/>
</mask>
<path fill-rule="evenodd" clip-rule="evenodd" d="M31.4494 12.1168C28.9068 6.92408 23.879 4.1714 21.3211 2.77099C20.7265 2.44549 20.2654 2.19305 20 2C20.8762 4.92071 21.9572 10.23 21.9871 15.7353C15.1192 19.6765 10.7645 25.7946 8.95838 33H6C3.79086 33 2 34.7909 2 37V45C2 47.2092 3.79086 49 6 49H8.95837C10.7143 56.0053 14.8793 61.983 21.4208 65.9314L19.5359 69.1962C18.4313 71.1094 19.0868 73.5557 21 74.6603C22.9132 75.7649 25.3595 75.1094 26.4641 73.1962L28.7851 69.1761C32.655 70.356 37.0611 71 42 71C47.8588 71 53.3715 69.6925 58.1837 67.3901L61.5359 73.1962C62.6405 75.1094 65.0868 75.7649 67 74.6603C68.9132 73.5557 69.5687 71.1094 68.4641 69.1962L64.9599 63.1268C71.7453 57.6422 76 49.7595 76 41C76 24.4315 64.5555 11 42 11C38.1606 11 34.6432 11.3892 31.4494 12.1168Z" fill="#78D3A9"/>
<path d="M31.4494 12.1168L29.6531 12.9963C30.0612 13.8296 30.9889 14.2729 31.8936 14.0668L31.4494 12.1168ZM21.3211 2.77099L20.3606 4.52528L20.3606 4.52528L21.3211 2.77099ZM20 2L21.1763 0.382529C20.4822 -0.122282 19.5434 -0.127947 18.8433 0.368449C18.1431 0.864846 17.8377 1.75262 18.0843 2.5747L20 2ZM21.9871 15.7353L22.9826 17.4699C23.6073 17.1114 23.991 16.4447 23.9871 15.7244L21.9871 15.7353ZM8.95838 33V35C9.87565 35 10.6753 34.376 10.8984 33.4863L8.95838 33ZM8.95837 49L10.8984 48.5137C10.6753 47.624 9.87565 47 8.95837 47V49ZM21.4208 65.9314L23.1528 66.9314C23.6975 65.988 23.387 64.7821 22.4543 64.2192L21.4208 65.9314ZM19.5359 69.1962L17.8038 68.1962L17.8038 68.1962L19.5359 69.1962ZM26.4641 73.1962L28.1962 74.1962L28.1962 74.1962L26.4641 73.1962ZM28.7851 69.1761L29.3683 67.2631C28.4781 66.9917 27.5184 67.3702 27.053 68.1761L28.7851 69.1761ZM58.1837 67.3901L59.9158 66.3901C59.3934 65.4854 58.2628 65.1351 57.3205 65.5859L58.1837 67.3901ZM61.5359 73.1962L59.8038 74.1962L59.8038 74.1962L61.5359 73.1962ZM67 74.6603L68 76.3924L68 76.3924L67 74.6603ZM68.4641 69.1962L66.732 70.1962L66.732 70.1962L68.4641 69.1962ZM64.9599 63.1268L63.7027 61.5714C62.937 62.1902 62.7356 63.2742 63.2279 64.1268L64.9599 63.1268ZM33.2456 11.2372C30.3915 5.40823 24.8027 2.39699 22.2815 1.01669L20.3606 4.52528C22.9553 5.94581 27.4222 8.43992 29.6531 12.9963L33.2456 11.2372ZM22.2815 1.01669C21.625 0.657238 21.3107 0.48025 21.1763 0.382529L18.8237 3.61747C19.2202 3.90585 19.8281 4.23374 20.3606 4.52528L22.2815 1.01669ZM18.0843 2.5747C18.9147 5.3427 19.9584 10.4611 19.9871 15.7461L23.9871 15.7244C23.9559 9.99891 22.8377 4.49872 21.9157 1.4253L18.0843 2.5747ZM20.9917 14.0006C13.6313 18.2243 8.95063 24.8051 7.01839 32.5137L10.8984 33.4863C12.5783 26.7841 16.607 21.1286 22.9826 17.4699L20.9917 14.0006ZM8.95838 31H6V35H8.95838V31ZM6 31C2.68629 31 0 33.6863 0 37H4C4 35.8954 4.89543 35 6 35V31ZM0 37V45H4V37H0ZM0 45C0 48.3137 2.68629 51 6 51V47C4.89543 47 4 46.1046 4 45H0ZM6 51H8.95837V47H6V51ZM7.01839 49.4863C8.89649 56.9789 13.372 63.4093 20.3873 67.6437L22.4543 64.2192C16.3866 60.5567 12.5321 55.0317 10.8984 48.5137L7.01839 49.4863ZM19.6887 64.9314L17.8038 68.1962L21.2679 70.1962L23.1528 66.9314L19.6887 64.9314ZM17.8038 68.1962C16.147 71.0659 17.1302 74.7355 20 76.3923L22 72.9282C21.0434 72.376 20.7157 71.1528 21.2679 70.1962L17.8038 68.1962ZM20 76.3923C22.8698 78.0492 26.5393 77.0659 28.1962 74.1962L24.7321 72.1962C24.1798 73.1528 22.9566 73.4805 22 72.9282L20 76.3923ZM28.1962 74.1962L30.5171 70.1761L27.053 68.1761L24.7321 72.1962L28.1962 74.1962ZM28.2018 71.0892C32.2829 72.3335 36.888 73 42 73V69C37.2343 69 33.0271 68.3786 29.3683 67.2631L28.2018 71.0892ZM42 73C48.1569 73 53.9646 71.6258 59.0469 69.1942L57.3205 65.5859C52.7784 67.7591 47.5607 69 42 69V73ZM56.4517 68.3901L59.8038 74.1962L63.2679 72.1962L59.9158 66.3901L56.4517 68.3901ZM59.8038 74.1962C61.4607 77.066 65.1302 78.0492 68 76.3924L66 72.9283C65.0434 73.4805 63.8202 73.1528 63.2679 72.1962L59.8038 74.1962ZM68 76.3924C70.8697 74.7355 71.853 71.066 70.1961 68.1962L66.732 70.1962C67.2843 71.1528 66.9566 72.376 66 72.9283L68 76.3924ZM70.1961 68.1962L66.692 62.1268L63.2279 64.1268L66.732 70.1962L70.1961 68.1962ZM66.2172 64.6822C73.4113 58.8672 78 50.4378 78 41H74C74 49.0812 70.0793 56.4171 63.7027 61.5714L66.2172 64.6822ZM78 41C78 32.2473 74.9684 24.1977 68.8401 18.3409C62.7124 12.4847 53.6784 9.00002 42 9.00002V13C52.877 13 60.8431 16.2311 66.0765 21.2327C71.3094 26.2338 74 33.1842 74 41H78ZM42 9.00002C38.0259 9.00002 34.3584 9.40283 31.0051 10.1667L31.8936 14.0668C34.928 13.3755 38.2954 13 42 13V9.00002Z" fill="#2B6F95" mask="url(#path-4-outside-1_101_25)"/>
<path fill-rule="evenodd" clip-rule="evenodd" d="M27.1379 6.64419C28.0131 7.65887 28.8098 8.81062 29.4494 10.1168C29.687 10.0626 29.9264 10.0104 30.1676 9.96001C29.2618 8.67738 28.2135 7.58055 27.1379 6.64419ZM66.8644 19.2361C71.6109 24.5146 74 31.4299 74 39C74 47.7595 69.7453 55.6422 62.9599 61.1268L66.4641 67.1962C67.5687 69.1094 66.9132 71.5557 65 72.6603C63.831 73.3352 62.4629 73.353 61.3235 72.8283L61.5359 73.1962C62.6405 75.1094 65.0868 75.7649 67 74.6603C68.9132 73.5557 69.5687 71.1094 68.4641 69.1962L64.9599 63.1268C71.7453 57.6422 76 49.7595 76 41C76 32.4319 72.9394 24.7027 66.8644 19.2361ZM57.5176 67.7004L56.1837 65.3901C51.3715 67.6925 45.8588 69 40 69C35.0611 69 30.655 68.356 26.7851 67.1761L24.4641 71.1962C23.4266 72.9932 21.2053 73.6806 19.354 72.8422C19.6865 73.5802 20.2454 74.2246 21 74.6603C22.9132 75.7649 25.3595 75.1094 26.4641 73.1962L28.7851 69.1761C32.655 70.356 37.0611 71 42 71C47.5902 71 52.8654 69.8096 57.5176 67.7004ZM19.146 64.4074L19.4208 63.9314C17.8563 62.9871 16.4278 61.9267 15.1356 60.764C16.3246 62.0863 17.6616 63.3059 19.146 64.4074ZM7.53451 49C7.32001 48.3435 7.12796 47.6766 6.95838 47H4C3.41306 47 2.85565 46.8736 2.35351 46.6465C2.98114 48.0344 4.3778 49 6 49H7.53451Z" fill="#1BB093"/>
<path d="M34.007 15.4736C41.43 14.2605 45.5115 14.5862 52.648 16.9613" stroke="#1BB093" stroke-width="4" stroke-linecap="round" stroke-linejoin="round"/>
<path fill-rule="evenodd" clip-rule="evenodd" d="M36.951 53.9841C49.2126 53.5721 59 45.2303 59 35C59 24.5066 51.2581 16 36 16C20.7419 16 13 24.5066 13 35C13 41.5543 16.0204 47.3335 22.0063 50.7488C23.2309 48.4968 25.5692 47 29 47C33.8938 47 36.5646 50.0455 36.951 53.9841Z" fill="#92EAC1"/>
<path d="M56 36C56 42.6274 50.6274 48 44 48C36.0392 48 32 42.6274 32 36C32 29.3726 36.0392 24 44 24C51.9608 24 56 29.3726 56 36Z" fill="#C4FFE4"/>
<path d="M30 25.5C30 27.9853 27.5376 30 24.5 30C20.8513 30 19 27.9853 19 25.5C19 23.0147 20.8513 21 24.5 21C28.1487 21 30 23.0147 30 25.5Z" fill="#C3FFE3"/>
<path d="M23 19C20.619 19.7982 15.2857 23.5158 13 32" stroke="#9FFAD0" stroke-width="2" stroke-linecap="round" stroke-linejoin="round"/>
<path d="M77.3989 44.3995C79.8514 43.9142 83.5702 40.6299 81.7319 35.387C79.3922 28.7142 72.423 32.1321 73.5929 35.4684C75.2474 40.1868 84.866 38.3468 82.8256 28.0349C81.6314 22 77.3989 21.5 75.5 22" stroke="#2B6F95" stroke-width="2" stroke-linecap="round" stroke-linejoin="round"/>
<path d="M20 28C21.0909 29.5092 24.2182 31.6222 28 28" stroke="#2B6F95" stroke-width="2" stroke-linecap="round" stroke-linejoin="round"/>
<path d="M24 6C25.5 7.5 28 10 29 12" stroke="#9FFAD0" stroke-width="2" stroke-linecap="round" stroke-linejoin="round"/>
<path d="M20 55C22.7 55 25.85 55 29 51" stroke="#2B6F95" stroke-width="2" stroke-linecap="round" stroke-linejoin="round"/>
<circle cx="59.5" cy="53.5" r="1.5" fill="#1BB093"/>
<circle cx="64.5" cy="51.5" r="1.5" fill="#1BB093"/>
<circle cx="61" cy="49" r="1" fill="#1BB093"/>
<circle cx="68" cy="47" r="1" fill="#1BB093"/>
<circle cx="70" cy="42" r="1" fill="#1BB093"/>
<circle cx="69" cy="36" r="1" fill="#1BB093"/>
<circle cx="67" cy="44" r="1" fill="#1BB093"/>
<circle cx="62" cy="45" r="1" fill="#1BB093"/>
<circle cx="68" cy="51" r="1" fill="#1BB093"/>
<circle cx="67" cy="55" r="1" fill="#1BB093"/>
<circle cx="62" cy="58" r="1" fill="#1BB093"/>
<circle cx="61" cy="62" r="1" fill="#1BB093"/>
<circle cx="55" cy="62" r="1" fill="#1BB093"/>
<circle cx="51" cy="59" r="1" fill="#1BB093"/>
<circle cx="59" cy="59" r="1" fill="#1BB093"/>
<circle cx="54" cy="55" r="1" fill="#1BB093"/>
<circle cx="72.5" cy="44.5" r="1.5" fill="#1BB093"/>
<path d="M49 29.3333C47.8781 28.4909 46.5314 28 45.0832 28C41.1713 28 38 31.5817 38 36C38 40.4183 41.1713 44 45.0832 44C46.5314 44 47.8781 43.5091 49 42.6667" stroke="#2B6F95" stroke-width="3" stroke-linecap="round" stroke-linejoin="round"/>
<path d="M35 38H43" stroke="#2B6F95" stroke-width="2" stroke-linecap="round" stroke-linejoin="round"/>
<path d="M35 34H43" stroke="#2B6F95" stroke-width="2" stroke-linecap="round" stroke-linejoin="round"/>
</svg>
